<svg id="svg8" width="32.894mm" height="33.538mm" version="1.1" viewBox="0 0 32.893867 33.537788" xmlns="http://www.w3.org/2000/svg">
 <g id="layer1">
  <g id="g4542">
   <rect id="rect4523" x="-.0011973" y=".0079329" width="32.894" height="33.538" style="fill:none;paint-order:markers stroke fill"/>
   <path id="path4547" d="m5.7952 28.741c-2.975-0.65016-5.4266-1.1976-5.448-1.2165-0.021443-0.018927 0.14495-0.46042 0.36963-0.98114l0.40849-0.94676 0.72788 0.22632c2.3568 0.73281 5.1764-0.57538 6.2706-2.9093 0.39777-0.84842 0.41729-1.0148 0.466-3.9708l0.050873-3.0853s-0.25601-0.21077-0.40854-0.26768c-0.28777-0.10744-0.6068-0.14549-0.91316-0.12334-0.1745 0.01258-0.50462 0.14436-0.50462 0.14436l-0.085992 2.9734c-0.091024 3.1473-0.18031 3.5473-0.99063 4.439-0.80374 0.88448-2.3417 1.232-3.6058 0.81486-0.70621-0.23308-1.7543-1.3761-1.9682-2.1464-0.21548-0.77604-0.22175-7.6224-0.0076583-8.3931 0.38284-1.3784 1.9349-2.9652 3.4442-3.5214 0.93924-0.34613 6.4197-0.50136 7.4562-0.21117 0.8669 0.24271 1.5276 0.82204 2.858 2.5061 1.5 1.8987 1.8223 2.0382 4.7078 2.0382 0 0 1.5611-0.28777 2.2559 0 0.47612 0.19721 0.90304 0.61426 1.0932 1.0932 0.22082 0.5561-0.05273 1.7943-0.05273 1.7943-0.04453 1.5164-0.10284 1.8612-0.376 2.2267-0.50736 0.67863-1.041 1.0061-2.2042 1.3528-0.92722 0.27634-1.6794 0.33471-5.3569 0.41576-3.5606 0.07844-4.3032 0.13374-4.4268 0.32946-0.21082 0.33371-0.18866 1.3131 0.034791 1.5365 0.12944 0.12945 0.91461 0.18814 2.5165 0.18814h2.3284l-0.73383 1.0284c-0.81267 1.1389-1.5077 2.7875-1.7809 4.224-0.29902 1.5727-0.32263 1.6467-0.52228 1.6349-0.10612-0.0066-2.6271-0.5433-5.6021-1.1935zm6.6423-14.328c0.30544-0.24025 0.41311-0.4677 0.41311-0.87263 0-0.73844-0.21386-1.0888-0.78649-1.2884-0.58066-0.20242-1.1195-0.02932-1.4711 0.47275-0.37358 0.53336-0.3058 1.0418 0.2073 1.5549 0.54098 0.541 1.0647 0.58365 1.6372 0.13334z" style="fill:#956a6d;stroke-width:.15679"/>
   <g id="chatBox">
    <path id="path4549" d="m20.163 9.8978 0.096148-0.91986-0.85918-0.93458c-0.47256-0.51402-0.98447-1.2626-1.1376-1.6635-1.1922-3.1218 2.484-6.3718 7.2072-6.3718 2.9063 0 5.8169 1.3512 6.9031 3.2047 1.2897 2.2007 0.11432 4.7901-2.8074 6.1845-1.6447 0.78494-3.2268 1.0142-5.4281 0.78657-1.7871-0.18479-1.8112-0.18287-2.8092 0.22375-0.55366 0.22558-1.0639 0.41014-1.134 0.41014-0.07002 0-0.08405-0.41394-0.03116-0.91986zm2.1429-2.3918c0.1883-0.097272 0.49438-0.36177 0.68017-0.58778 0.33448-0.40687 0.3589-0.41092 2.4799-0.41092h2.1421l0.4198 0.50189c0.53007 0.63373 1.1472 0.79798 1.6819 0.44764 0.53551-0.35088 0.72659-0.89681 0.52064-1.4876-0.11824-0.3392-0.11257-0.62824 0.0202-1.0306 0.15477-0.46896 0.14301-0.62266-0.07287-0.95212-0.29923-0.45669-0.93774-0.74112-1.3617-0.60657-0.16253 0.051587-0.50495 0.31788-0.76092 0.59177l-0.4654 0.49798h-4.2284l-0.44808-0.49059c-0.56584-0.61952-1.0057-0.76027-1.5542-0.49738-0.64975 0.31142-0.88042 0.9029-0.60634 1.5548 0.18923 0.45004 0.1893 0.58445 4.68e-4 0.94955-0.26564 0.51369-0.09826 1.0752 0.43095 1.4459 0.42403 0.297 0.65998 0.31258 1.1217 0.074068z" style="fill:#af6f86;stroke-width:.15674"/>
    <path id="path4551" d="m21.552 7.6012c-0.37492-0.12957-0.73995-0.4866-0.85553-0.83678-0.066065-0.20016-0.025176-0.54461 0.096394-0.81293 0.14168-0.31269 0.14035-0.54536-0.005209-0.89523-0.13783-0.33132-0.14944-0.75553-0.026913-0.98658 0.23321-0.44 0.84248-0.76444 1.2595-0.67074 0.27902 0.062689 0.45268 0.18598 0.89856 0.63785l0.4471 0.4531 2.1107 8.681e-4 2.1107 8.682e-4 0.34732-0.35699c0.6299-0.64748 0.88152-0.80329 1.2276-0.76005 0.39622 0.049505 0.81779 0.33293 1.0364 0.69681 0.15389 0.25613 0.16382 0.45575 0.0417 0.83899-0.12643 0.3967-0.13763 0.67688-0.04086 1.0216 0.16066 0.57232 0.07515 0.97571-0.28021 1.3218-0.36581 0.35626-0.81244 0.44938-1.2327 0.257-0.22896-0.10482-0.54008-0.38428-0.85128-0.76469l-0.20508-0.25064-2.0494 0.013601c-1.537 0.010215-2.0853 0.025321-2.1928 0.060466-0.09966 0.032573-0.23891 0.14512-0.45676 0.36915-0.40667 0.41825-0.60941 0.56555-0.90331 0.65633-0.28435 0.087822-0.24204 0.087249-0.47592 0.00642z" style="fill:#fff;paint-order:markers stroke fill;stroke-width:.073057;stroke:#fff"/>
   </g>
  </g>
 </g>
</svg>
