<svg id="svg8" width="121.26mm" height="33.541mm" version="1.1" viewBox="0 0 121.25751 33.540928" xmlns="http://www.w3.org/2000/svg">
 <g id="layer1">
  <g id="g4766" transform="matrix(1.094 0 0 1.094 -610.15 -345.94)">
   <path id="path4754" d="m563 342.47c-2.7193-0.59427-4.9602-1.0946-4.9797-1.1119-0.0196-0.0173 0.13249-0.42084 0.33786-0.8968l0.37338-0.86537 0.66531 0.20687c2.1542 0.66982 4.7314-0.52592 5.7316-2.6592 0.36358-0.77549 0.38142-0.92758 0.42594-3.6295l0.0465-2.8201s-0.234-0.19265-0.37342-0.24467c-0.26303-0.0982-0.55464-0.13298-0.83466-0.11274-0.1595 0.0115-0.46124 0.13195-0.46124 0.13195l-0.0786 2.7178c-0.0832 2.8767-0.16481 3.2424-0.90547 4.0574-0.73465 0.80845-2.1404 1.1261-3.2958 0.74481-0.6455-0.21304-1.6035-1.2578-1.799-1.9619-0.19696-0.70933-0.20269-6.9671-7e-3 -7.6716 0.34993-1.2599 1.7685-2.7103 3.1481-3.2187 0.8585-0.31638 5.8679-0.45826 6.8152-0.19302 0.79238 0.22185 1.3963 0.75138 2.6123 2.2907 1.371 1.7354 1.6657 1.863 4.3032 1.863 0 0 1.427-0.26303 2.062 0 0.43519 0.18026 0.82541 0.56146 0.99926 0.99926 0.20184 0.5083-0.0482 1.64-0.0482 1.64-0.0407 1.386-0.094 1.7012-0.34368 2.0352-0.46375 0.62029-0.95151 0.91965-2.0147 1.2365-0.84751 0.25258-1.5351 0.30594-4.8964 0.38002-3.2545 0.0717-3.9333 0.12224-4.0463 0.30114-0.1927 0.30502-0.17244 1.2002 0.0318 1.4044 0.11831 0.11832 0.83599 0.17197 2.3002 0.17197h2.1282l-0.67075 0.93997c-0.74281 1.041-1.3781 2.5479-1.6278 3.8609-0.27332 1.4375-0.2949 1.5051-0.47738 1.4944-0.097-6e-3 -2.4013-0.4966-5.1206-1.0909zm6.0713-13.097c0.27918-0.2196 0.3776-0.4275 0.3776-0.79762 0-0.67496-0.19548-0.99518-0.71888-1.1776-0.53075-0.18502-1.0232-0.0268-1.3446 0.43211-0.34147 0.48751-0.27951 0.95229 0.18948 1.4213 0.49448 0.49449 0.97319 0.53348 1.4964 0.12188z" style="fill:#956a6d;stroke-width:.14331"/>
   <text id="text4758" x="584.64783" y="337.74716" style="fill:#815c5e;font-family:'Shorelines Script Bold';font-size:12.49px;letter-spacing:0px;line-height:1.25;stroke-width:.58545;word-spacing:0px" xml:space="preserve"><tspan id="tspan4756" x="584.64783" y="337.74716" style="fill:#815c5e;stroke-width:.58545">dog &amp; quote</tspan></text>
   <g id="g4764" transform="matrix(.54164 0 0 .54164 691 314.58)">
    <path id="path4760" d="m-212.07 19.68 0.1623-1.5528-1.4503-1.5776c-0.79769-0.86768-1.6618-2.1313-1.9203-2.8081-2.0125-5.2696 4.193-10.756 12.166-10.756 4.9059 0 9.8191 2.2809 11.653 5.4097 2.1771 3.7149 0.19298 8.0858-4.7389 10.44-2.7763 1.325-5.4469 1.712-9.1627 1.3278-3.0166-0.31193-3.0573-0.30869-4.742 0.3777-0.93459 0.38078-1.796 0.69232-1.9142 0.69232s-0.14188-0.69874-0.0526-1.5528zm3.6173-4.0375c0.31786-0.1642 0.83452-0.61068 1.1482-0.99219 0.56462-0.68681 0.60583-0.69364 4.1862-0.69364h3.6159l0.70863 0.8472c0.89478 1.0698 1.9365 1.347 2.839 0.75563 0.90396-0.5923 1.2265-1.5138 0.87886-2.5111-0.1996-0.57257-0.19002-1.0605 0.0341-1.7397 0.26126-0.79162 0.2414-1.0511-0.123-1.6072-0.50511-0.7709-1.5829-1.251-2.2985-1.0239-0.27436 0.08708-0.85237 0.5366-1.2844 0.99892l-0.78561 0.8406h-7.1377l-0.75637-0.82812c-0.95516-1.0458-1.6976-1.2834-2.6235-0.83959-1.0968 0.52568-1.4862 1.5241-1.0235 2.6245 0.31942 0.75968 0.31954 0.98657 7.9e-4 1.6029-0.4484 0.86712-0.16587 1.815 0.72746 2.4408 0.71578 0.50135 1.1141 0.52765 1.8935 0.12503z" style="fill:#af6f86;stroke-width:.26458"/>
    <path id="path4762" transform="matrix(.48849 0 0 .48849 -1286.4 -441.37)" d="m2204 935.9c-1.2956-0.44774-2.557-1.6815-2.9564-2.8916-0.2283-0.69167-0.087-1.882 0.3331-2.8092 0.4896-1.0806 0.485-1.8846-0.018-3.0936-0.4763-1.1449-0.5164-2.6108-0.093-3.4093 0.8059-1.5205 2.9113-2.6416 4.3524-2.3178 0.9642 0.21663 1.5643 0.64268 3.1051 2.2042l1.545 1.5657 7.2939 3e-3 7.2938 3e-3 1.2002-1.2336c2.1767-2.2375 3.0462-2.7759 4.242-2.6265 1.3692 0.17107 2.826 1.1505 3.5816 2.4079 0.5318 0.88508 0.5661 1.5749 0.1441 2.8993-0.4369 1.3708-0.4756 2.3391-0.1412 3.5304 0.5552 1.9777 0.2597 3.3717-0.9683 4.5677-1.2641 1.2311-2.8075 1.5529-4.2596 0.88811-0.7912-0.36222-1.8663-1.328-2.9417-2.6425l-0.7087-0.86613-7.0821 0.047c-5.3112 0.0353-7.206 0.0875-7.5776 0.20895-0.3444 0.11256-0.8256 0.50148-1.5784 1.2756-1.4053 1.4453-2.1059 1.9543-3.1215 2.268-0.9826 0.30348-0.8364 0.3015-1.6446 0.0222z" style="fill:#fff;paint-order:markers stroke fill;stroke-width:.25246;stroke:#fff"/>
   </g>
  </g>
 </g>
</svg>
